<svg width="115" height="24" viewBox="0 0 115 24" fill="none" xmlns="http://www.w3.org/2000/svg">
<path d="M10.8468 23.6225C4.33238 23.6225 0 18.9423 0 11.8587C0 4.80673 4.45887 0.0316247 11.0049 0.0316247C16.1595 0.0316247 20.1124 3.09908 20.9662 7.77931H17.6458C16.7919 4.80673 14.2304 3.00421 10.91 3.00421C6.29302 3.00421 3.25719 6.48276 3.25719 11.8271C3.25719 17.1714 6.29302 20.65 10.91 20.65C14.2621 20.65 16.9184 18.8474 17.7722 16.033H21.0611C20.0807 20.5867 16.0013 23.6225 10.8468 23.6225Z" fill="#36210F"/>
<path d="M27.1732 23.2431H24.2007V0H27.1732V10.1827C28.1536 8.50665 30.0193 7.36821 32.4227 7.36821C36.3756 7.36821 38.273 9.86644 38.273 13.8193V23.2747H35.3004V14.4834C35.3004 11.3527 33.8141 10.0878 31.6005 10.0878C28.7228 10.0878 27.1732 12.1749 27.1732 14.8313V23.2431Z" fill="#36210F"/>
<path d="M43.8448 4.14264C42.7697 4.14264 41.8842 3.25719 41.8842 2.182C41.8842 1.07519 42.7697 0.221363 43.8448 0.221363C44.92 0.221363 45.8055 1.07519 45.8055 2.182C45.8055 3.25719 44.92 4.14264 43.8448 4.14264ZM42.3902 23.2747V7.81093H45.3628V23.2747H42.3902Z" fill="#36210F"/>
<path d="M48.6664 15.5586C48.6664 10.7203 51.7338 7.36821 56.256 7.36821C60.1456 7.36821 62.8652 9.58183 63.4028 13.0288H60.4302C59.9243 11.0681 58.3431 10.0246 56.3508 10.0246C53.5364 10.0246 51.6074 12.1749 51.6074 15.527C51.6074 18.8474 53.4099 20.9978 56.2243 20.9978C58.3431 20.9978 59.9243 19.891 60.4619 18.0569H63.4344C62.8336 21.4089 59.9559 23.6542 56.2243 23.6542C51.6706 23.6542 48.6664 20.4286 48.6664 15.5586Z" fill="#36210F"/>
<path d="M83.3766 10.8468C86.1278 12.4595 88.4679 14.0407 88.4679 17.0133C88.4679 21.0927 84.1672 23.5909 79.392 23.5909C77.1784 23.5909 75.2494 23.0533 73.5734 22.2627L75.534 16.9817H76.4195L76.4511 21.5354C77.6528 22.1995 78.7596 22.4209 79.9613 22.4209C83.1868 22.4209 85.6218 20.8081 85.6218 18.2782C85.6218 16.1595 83.8825 14.7997 81.5741 13.4399C79.0126 11.922 76.9571 10.4357 76.9571 7.6212C76.9571 3.85803 80.5937 1.39142 85.0526 1.39142C87.1397 1.39142 88.9423 1.89739 90.7448 2.68797L88.8474 7.68444H87.9619V3.44693C86.7919 2.81447 85.8116 2.56148 84.5783 2.56148C81.7005 2.56148 79.7083 3.92128 79.7083 6.29302C79.7083 8.4434 81.2262 9.58183 83.3766 10.8468Z" fill="#36210F"/>
<path d="M104.862 20.9346C103.502 22.2627 101.7 23.5909 100.466 23.5909C99.2329 23.5909 99.2013 22.326 99.391 20.8713C99.4859 20.2072 99.5808 19.4799 99.7705 18.6893C98.1261 21.3457 96.039 23.5909 93.7937 23.5909C91.8331 23.5909 90.916 21.7884 90.916 19.4167C90.916 13.8826 95.3749 8.60152 99.9919 8.60152C100.877 8.60152 101.794 8.75963 102.648 9.10749L104.514 8.72801L102.079 20.2072C101.952 20.8713 102.047 21.2824 102.522 21.2824C102.964 21.2824 103.66 20.8397 104.356 20.2389L104.862 20.9346ZM93.8253 18.4363C93.8253 19.7961 94.1732 21.5354 95.3116 21.5354C96.7663 21.5354 98.885 18.4996 100.276 15.9697L101.51 10.0878C100.877 9.77157 100.245 9.61346 99.6756 9.61346C96.5449 9.61346 93.8253 14.4518 93.8253 18.4363Z" fill="#36210F"/>
<path d="M113.396 20.9346C111.973 22.3576 110.233 23.5909 108.968 23.5909C107.514 23.5909 107.482 22.2311 107.798 20.5551L111.024 3.88966C111.34 2.182 110.961 2.21363 108.81 2.11876L108.874 1.26493L113.996 0.505972L114.376 0.885452L110.55 20.4286C110.423 21.0294 110.613 21.2824 110.961 21.2824C111.435 21.2824 112.162 20.8397 112.89 20.2389L113.396 20.9346Z" fill="#36210F"/>
</svg>
